<svg xmlns="http://www.w3.org/2000/svg" width="18" height="18" viewBox="0 0 18 18">
    <g fill="none" fill-rule="evenodd">
        <g fill="#E94757">
            <g>
                <g>
                    <g>
                        <path d="M12 2.325c2.03 0 3.675 1.645 3.675 3.675v6c0 2.03-1.645 3.675-3.675 3.675H6c-2.03 0-3.675-1.645-3.675-3.675V6C2.325 3.97 3.97 2.325 6 2.325zm.31 4.476c-.263-.265-.69-.266-.954-.003L8.365 9.77l-1.72-1.715-.07-.06c-.264-.201-.643-.18-.884.061-.264.264-.263.692 0 .955l2.197 2.19.069.06c.264.201.642.181.883-.059l3.467-3.447.061-.069c.202-.264.183-.643-.058-.885z" transform="translate(-1609 -629) translate(1585 159) translate(16 459) translate(8 11)"/>
                    </g>
                </g>
            </g>
        </g>
    </g>
</svg>
