<svg xmlns="http://www.w3.org/2000/svg" width="18" height="18" viewBox="0 0 18 18">
    <g fill="none" fill-rule="evenodd">
        <g fill="#555">
            <g>
                <g>
                    <g>
                        <path d="M12 2.325c2.03 0 3.675 1.645 3.675 3.675v6c0 2.03-1.645 3.675-3.675 3.675H6c-2.03 0-3.675-1.645-3.675-3.675V6C2.325 3.97 3.97 2.325 6 2.325zm0 1.35H6c-1.284 0-2.325 1.04-2.325 2.325v6c0 1.284 1.04 2.325 2.325 2.325h6c1.284 0 2.325-1.04 2.325-2.325V6c0-1.284-1.04-2.325-2.325-2.325zm.31 3.126c.241.242.26.621.058.885l-.06.07-3.468 3.446c-.241.24-.62.26-.883.06l-.07-.06L5.693 9.01c-.264-.263-.265-.69-.001-.955.24-.242.62-.262.885-.061l.07.06L8.364 9.77l2.99-2.972c.265-.263.692-.262.955.003z" transform="translate(-1609 -581) translate(1585 159) translate(16 411) translate(8 11)"/>
                    </g>
                </g>
            </g>
        </g>
    </g>
</svg>
