<svg xmlns="http://www.w3.org/2000/svg" width="33" height="32" viewBox="0 0 33 32">
    <g fill="none" fill-rule="evenodd">
        <g fill="#161616">
            <g>
                <g>
                    <path d="M25.333 21.467c.663 0 1.2.537 1.2 1.2 0 .611-.457 1.116-1.05 1.19l-.15.01H6.667c-.663 0-1.2-.538-1.2-1.2 0-.612.457-1.117 1.05-1.191l.15-.01h18.666zm0-6.667c.663 0 1.2.537 1.2 1.2 0 .612-.457 1.117-1.05 1.19l-.15.01H6.667c-.663 0-1.2-.537-1.2-1.2 0-.612.457-1.117 1.05-1.19l.15-.01h18.666zm0-6.667c.663 0 1.2.538 1.2 1.2 0 .612-.457 1.117-1.05 1.191l-.15.01H6.667c-.663 0-1.2-.538-1.2-1.2 0-.612.457-1.117 1.05-1.191l.15-.01h18.666z" transform="translate(-332 -61) translate(0 53) translate(332 8)"/>
                </g>
            </g>
        </g>
    </g>
</svg>
