<svg xmlns="http://www.w3.org/2000/svg" width="25" height="24" viewBox="0 0 25 24">
    <g fill="none" fill-rule="evenodd">
        <g fill="#FFF">
            <g>
                <g>
                    <path d="M12.544 3.133l.092.08 2.3 2.3c.351.352.351.922 0 1.273-.322.322-.828.35-1.18.08l-.093-.08-.764-.764V11.1h5.077l-.762-.762-.08-.092c-.27-.353-.242-.859.08-1.18.351-.352.921-.352 1.273 0l2.3 2.299.08.092c.268.353.241.858-.08 1.18l-2.3 2.3-.092.08c-.353.269-.859.242-1.181-.08l-.08-.092c-.27-.353-.242-.859.08-1.181l.762-.764H12.9v5.077l.764-.762.092-.08c.353-.27.859-.242 1.18.08.352.351.352.921 0 1.273l-2.299 2.3-.092.08c-.353.268-.858.241-1.18-.08l-2.3-2.3-.08-.092c-.269-.353-.242-.859.08-1.181l.092-.08c.353-.27.859-.242 1.181.08l.762.762V12.9H6.022l.764.764c.322.322.35.828.08 1.18l-.08.093c-.322.322-.828.349-1.18.08l-.093-.08-2.3-2.3c-.321-.322-.348-.827-.08-1.18l.08-.092 2.3-2.3c.352-.351.922-.351 1.273 0 .322.322.35.828.08 1.18l-.08.093-.764.762H11.1V6.022l-.762.764c-.322.322-.828.35-1.18.08l-.093-.08c-.322-.322-.349-.828-.08-1.18l.08-.093 2.3-2.3c.322-.321.827-.348 1.18-.08z" transform="translate(-326 -364) translate(16 356) translate(311 8)"/>
                </g>
            </g>
        </g>
    </g>
</svg>
