<svg xmlns="http://www.w3.org/2000/svg" width="18" height="18" viewBox="0 0 18 18">
    <g fill="none" fill-rule="evenodd">
        <g fill="#8B8B8B">
            <g>
                <g>
                    <g>
                        <path d="M10.908 1.856c.753 0 1.37.58 1.427 1.319l.004.111v.921h3.082c.373 0 .675.303.675.675 0 .345-.258.629-.59.67l-.085.005h-1.038l-.315 9.203c-.024.733-.596 1.322-1.315 1.38l-.115.004H5.395c-.733 0-1.341-.553-1.421-1.267l-.009-.113-.347-9.207H2.58c-.373 0-.675-.302-.675-.675 0-.344.258-.628.59-.67l.085-.005H5.66l.001-.92c0-.753.581-1.37 1.319-1.427l.112-.004h3.816zm2.124 3.701H4.97l.346 9.16c0 .032.02.06.05.07l.03.007h7.243c.033 0 .06-.02.073-.048l.008-.031.313-9.158zM7.648 7.19c.344 0 .628.257.67.59l.005.085v4.622c0 .373-.302.675-.675.675-.344 0-.628-.258-.67-.59l-.005-.085V7.865c0-.373.302-.675.675-.675zm2.704 0c.344 0 .628.257.67.59l.005.085v4.622c0 .373-.302.675-.675.675-.344 0-.628-.258-.67-.59l-.005-.085V7.865c0-.373.302-.675.675-.675zm.556-3.984H7.092c-.034 0-.062.02-.075.05l-.006.03v.921h3.977v-.92c0-.034-.02-.062-.048-.075l-.032-.006z" transform="translate(-306 -1821) translate(0 1813) translate(298) translate(8 8)"/>
                    </g>
                </g>
            </g>
        </g>
    </g>
</svg>
