<svg xmlns="http://www.w3.org/2000/svg" width="18" height="18" viewBox="0 0 18 18">
    <g fill="none" fill-rule="evenodd">
        <g fill="#161616">
            <g>
                <g>
                    <path d="M13.773 6.273c.263-.264.69-.264.954 0 .242.241.262.62.06.885l-.06.07-4.5 4.5c-.241.24-.62.261-.885.06l-.07-.06-4.5-4.5c-.263-.264-.263-.692 0-.955.242-.242.622-.262.886-.06l.07.06 4.022 4.022 4.023-4.022z" transform="translate(-333 -1739) translate(0 1723) translate(333 16) matrix(0 1 1 0 .75 -.75)"/>
                </g>
            </g>
        </g>
    </g>
</svg>
